# xmcd
#
# Track frame offsets:
#	150
#	13585
#	31218
#	49676
#	62323
#	81719
#	101924
#	113947
#	129648
#	143574
#	159834
#	178680
#	197359
#	211470
#	225650
#	243567
#	260861
#	274303
#
# Disc length: 3834 seconds
#
# Revision: 0
# Processed by: cddbd v1.5.2PL0 Copyright (c) Steve Scherf et al.
# Submitted via: EasyCDDAExtractor 16.0.6.1
#
DISCID=010ef812
DTITLE=Βασίλης Καρράς - Οι Μεγαλύτερες Επιτυχίες
DYEAR=2012
DGENRE=Λαϊκά
TTITLE0=Δεν πάω πουθενά (Βασίλης Καρράς)
TTITLE1=Απορώ αν αισθάνεσαι τύψεις (Βασίλης Καρράς)
TTITLE2=Δώδεκα παρά (Βασίλης Καρράς)
TTITLE3=Το αδιέξοδο (Βασίλης Καρράς)
TTITLE4=Τηλεφωνησέ μου (Βασίλης Καρράς)
TTITLE5=Θα μου κλείσεις το σπίτι (Βασίλης Καρράς)
TTITLE6=Άραγε (Βασίλης Καρράς)
TTITLE7=Φαινόμενο (Βασίλης Καρράς)
TTITLE8=Αν χαθείς τι θα κάνω (Βασίλης Καρράς)
TTITLE9=χαμένη πολιτεία (Βασίλης Καρράς)
TTITLE10=Γέλα μου (Βασίλης Καρράς)
TTITLE11=Ξενυχτισμένη πόλη (Βασίλης Καρράς)
TTITLE12=Θα το κάνω το έγκλημα (Βασίλης Καρράς)
TTITLE13=Με τα ρούχα κοιμάμαι (Βασίλης Καρράς)
TTITLE14=Πως τολμάς (Βασίλης Καρράς)
TTITLE15=Γύρισε (Βασίλης Καρράς)
TTITLE16=Βρεγμένος ως το κόκκαλο (Βασίλης Καρράς)
TTITLE17=Λέγε ότι θες (Βασίλης Καρράς)
EXTD=
EXTT0=
EXTT1=
EXTT2=
EXTT3=
EXTT4=
EXTT5=
EXTT6=
EXTT7=
EXTT8=
EXTT9=
EXTT10=
EXTT11=
EXTT12=
EXTT13=
EXTT14=
EXTT15=
EXTT16=
EXTT17=
PLAYORDER=
